name ./resultDataOpenSim/trcMotMarkerGrf/sub06/grf-12-02.mot
datacolumns 19
datarows 25
range 1.44400000 1.54000000
endheader

                time	     ground_force_vx	     ground_force_vy	     ground_force_vz	     ground_force_px	     ground_force_py	     ground_force_pz	   l_ground_force_vx	   l_ground_force_vy	   l_ground_force_vz	   l_ground_force_px	   l_ground_force_py	   l_ground_force_pz	     ground_torque_x	     ground_torque_y	     ground_torque_z	   l_ground_torque_x	   l_ground_torque_y	   l_ground_torque_z	
          1.44400000	         74.63081514	        571.46830381	        -26.03346292	          1.02350387	          0.00000000	          0.05840267	          0.00000000	          0.00000000	          0.00000000	          0.00000000	          0.00000000	          0.00000000	          0.00000000	          2.43473919	          0.00000000	          0.00000000	          0.00000000	          0.00000000	
          1.44800000	         78.79601374	        580.91684134	        -27.19377666	          1.02379970	          0.00000000	          0.05829415	          0.00000000	          0.00000000	          0.00000000	          0.00000000	          0.00000000	          0.00000000	          0.00000000	          2.49102548	          0.00000000	          0.00000000	          0.00000000	          0.00000000	
          1.45200000	         82.92757069	        589.34043455	        -27.87360491	          1.02410539	          0.00000000	          0.05818457	          0.00000000	          0.00000000	          0.00000000	          0.00000000	          0.00000000	          0.00000000	          0.00000000	          2.57167744	          0.00000000	          0.00000000	          0.00000000	          0.00000000	
          1.45600000	         87.20400119	        596.76858028	        -28.12885340	          1.02439367	          0.00000000	          0.05807233	          0.00000000	          0.00000000	          0.00000000	          0.00000000	          0.00000000	          0.00000000	          0.00000000	          2.66901123	          0.00000000	          0.00000000	          0.00000000	          0.00000000	
          1.46000000	         91.78506340	        603.22468523	        -28.08646346	          1.02463501	          0.00000000	          0.05795585	          0.00000000	          0.00000000	          0.00000000	          0.00000000	          0.00000000	          0.00000000	          0.00000000	          2.77175924	          0.00000000	          0.00000000	          0.00000000	          0.00000000	
          1.46400000	         96.77301520	        608.71207467	        -27.92265699	          1.02479738	          0.00000000	          0.05783758	          0.00000000	          0.00000000	          0.00000000	          0.00000000	          0.00000000	          0.00000000	          0.00000000	          2.86643127	          0.00000000	          0.00000000	          0.00000000	          0.00000000	
          1.46800000	        102.18871374	        613.20434513	        -27.83233147	          1.02486572	          0.00000000	          0.05772324	          0.00000000	          0.00000000	          0.00000000	          0.00000000	          0.00000000	          0.00000000	          0.00000000	          2.93891791	          0.00000000	          0.00000000	          0.00000000	          0.00000000	
          1.47200000	        107.97048607	        616.64585098	        -27.99400252	          1.02484750	          0.00000000	          0.05761946	          0.00000000	          0.00000000	          0.00000000	          0.00000000	          0.00000000	          0.00000000	          0.00000000	          2.97665890	          0.00000000	          0.00000000	          0.00000000	          0.00000000	
          1.47600000	        113.99723005	        618.96526000	        -28.53461884	          1.02477152	          0.00000000	          0.05753266	          0.00000000	          0.00000000	          0.00000000	          0.00000000	          0.00000000	          0.00000000	          0.00000000	          2.97123151	          0.00000000	          0.00000000	          0.00000000	          0.00000000	
          1.48000000	        120.12228680	        620.09670616	        -29.50061076	          1.02467758	          0.00000000	          0.05746462	          0.00000000	          0.00000000	          0.00000000	          0.00000000	          0.00000000	          0.00000000	          0.00000000	          2.92063258	          0.00000000	          0.00000000	          0.00000000	          0.00000000	
          1.48400000	        126.20115627	        619.99025866	        -30.84484657	          1.02458617	          0.00000000	          0.05741029	          0.00000000	          0.00000000	          0.00000000	          0.00000000	          0.00000000	          0.00000000	          0.00000000	          2.83033937	          0.00000000	          0.00000000	          0.00000000	          0.00000000	
          1.48800000	        132.11397379	        618.59869419	        -32.43538689	          1.02451039	          0.00000000	          0.05736232	          0.00000000	          0.00000000	          0.00000000	          0.00000000	          0.00000000	          0.00000000	          0.00000000	          2.71260003	          0.00000000	          0.00000000	          0.00000000	          0.00000000	
          1.49200000	        137.79444920	        615.86105267	        -34.08077658	          1.02446150	          0.00000000	          0.05731568	          0.00000000	          0.00000000	          0.00000000	          0.00000000	          0.00000000	          0.00000000	          0.00000000	          2.58401086	          0.00000000	          0.00000000	          0.00000000	          0.00000000	
          1.49600000	        143.26128233	        611.70206912	        -35.55993218	          1.02443793	          0.00000000	          0.05726760	          0.00000000	          0.00000000	          0.00000000	          0.00000000	          0.00000000	          0.00000000	          0.00000000	          2.46187796	          0.00000000	          0.00000000	          0.00000000	          0.00000000	
          1.50000000	        148.64000295	        606.04159037	        -36.65193245	          1.02441814	          0.00000000	          0.05722167	          0.00000000	          0.00000000	          0.00000000	          0.00000000	          0.00000000	          0.00000000	          0.00000000	          2.36006838	          0.00000000	          0.00000000	          0.00000000	          0.00000000	
          1.50400000	        154.14648713	        598.80207498	        -37.17434754	          1.02434112	          0.00000000	          0.05717777	          0.00000000	          0.00000000	          0.00000000	          0.00000000	          0.00000000	          0.00000000	          0.00000000	          2.28535594	          0.00000000	          0.00000000	          0.00000000	          0.00000000	
          1.50800000	        159.98824650	        589.89488663	        -37.02736347	          1.02411106	          0.00000000	          0.05712657	          0.00000000	          0.00000000	          0.00000000	          0.00000000	          0.00000000	          0.00000000	          0.00000000	          2.23570686	          0.00000000	          0.00000000	          0.00000000	          0.00000000	
          1.51200000	        166.22337529	        579.18191511	        -36.20645629	          1.02367559	          0.00000000	          0.05707127	          0.00000000	          0.00000000	          0.00000000	          0.00000000	          0.00000000	          0.00000000	          0.00000000	          2.20159807	          0.00000000	          0.00000000	          0.00000000	          0.00000000	
          1.51600000	        172.69461330	        566.44221404	        -34.77364834	          1.02305274	          0.00000000	          0.05701501	          0.00000000	          0.00000000	          0.00000000	          0.00000000	          0.00000000	          0.00000000	          0.00000000	          2.16978158	          0.00000000	          0.00000000	          0.00000000	          0.00000000	
          1.52000000	        179.06406655	        551.35870178	        -32.83422526	          1.02226312	          0.00000000	          0.05695249	          0.00000000	          0.00000000	          0.00000000	          0.00000000	          0.00000000	          0.00000000	          0.00000000	          2.12745438	          0.00000000	          0.00000000	          0.00000000	          0.00000000	
          1.52400000	        184.86668443	        533.52682329	        -30.52307517	          1.02131210	          0.00000000	          0.05688625	          0.00000000	          0.00000000	          0.00000000	          0.00000000	          0.00000000	          0.00000000	          0.00000000	          2.06513079	          0.00000000	          0.00000000	          0.00000000	          0.00000000	
          1.52800000	        189.53659348	        512.50746688	        -27.96794178	          1.02024125	          0.00000000	          0.05683065	          0.00000000	          0.00000000	          0.00000000	          0.00000000	          0.00000000	          0.00000000	          0.00000000	          1.97788076	          0.00000000	          0.00000000	          0.00000000	          0.00000000	
          1.53200000	        192.43398196	        487.92285167	        -25.25875178	          1.01912151	          0.00000000	          0.05679386	          0.00000000	          0.00000000	          0.00000000	          0.00000000	          0.00000000	          0.00000000	          0.00000000	          1.86554624	          0.00000000	          0.00000000	          0.00000000	          0.00000000	
          1.53600000	        192.89806062	        459.55960086	        -22.45578344	          1.01804771	          0.00000000	          0.05678444	          0.00000000	          0.00000000	          0.00000000	          0.00000000	          0.00000000	          0.00000000	          0.00000000	          1.73264728	          0.00000000	          0.00000000	          0.00000000	          0.00000000	
          1.54000000	        190.31336021	        427.46033607	        -19.60232648	          1.01714009	          0.00000000	          0.05681993	          0.00000000	          0.00000000	          0.00000000	          0.00000000	          0.00000000	          0.00000000	          0.00000000	          1.58820412	          0.00000000	          0.00000000	          0.00000000	          0.00000000	
